# xmcd CD database file generated by OrangeCD 4.2
#
# Track frame offsets:
#	182
#	13947
#	26192
#	39390
#	52645
#	65125
#	80097
#	92365
#	106940
#	120392
#	131705
#	144825
#	158157
#	171365
#	184775
#	200957
#	231765
#	255607
#
# Disc length: 3586 seconds
#
# Revision: 0
# Processed by: cddbd v1.4PL0 Copyright (c) Steve Scherf et al.
# Submitted via: OrangeCD 4.2
#
DISCID=f50e0012
DTITLE=John Lee Hooker - Ground Hog Blues
DYEAR=1900
DGENRE=Blues
TTITLE0=Louise
TTITLE1=High Proced Woman
TTITLE2=Union Station Blues
TTITLE3=Ground Hog Blues
TTITLE4=Leave my Wife Alone
TTITLE5=Ramblin' by Myself
TTITLE6=Walkin' the Boogie
TTITLE7=Sugar Mama
TTITLE8=Love Blues
TTITLE9=Please don't go
TTITLE10=Down at the landing
TTITLE11=It's my own fault darling
TTITLE12=Women and money
TTITLE13=Stella Mae
TTITLE14=Peace Lovin' man
TTITLE15=Let's go out tonight
TTITLE16=I put my trust on you
TTITLE17=1 Bourbon, 1 scotch, 1 beer
EXTD=
EXTT0=
EXTT1=
EXTT2=
EXTT3=
EXTT4=
EXTT5=
EXTT6=
EXTT7=
EXTT8=
EXTT9=
EXTT10=
EXTT11=
EXTT12=
EXTT13=
EXTT14=
EXTT15=
EXTT16=
EXTT17=
PLAYORDER=
